<svg xmlns="http://www.w3.org/2000/svg" width="33.35" height="24" viewBox="0 0 33.35 24"><defs><style>.a{opacity:0.3;}</style></defs><g class="a"><path d="M42.064,35.192a1.486,1.486,0,0,0-2.065,0l-10.64,10.64-.079.079h0a.078.078,0,0,1-.079.079v.715h0v.318h0v.159h0v.079h0v.079h0a.078.078,0,0,0,.079.079h0l.079.079h0c.079.079.079.159.159.238l10.64,10.64a1.315,1.315,0,0,0,1.032.4,1.51,1.51,0,0,0,1.032-.4,1.487,1.487,0,0,0,0-2.065l-8.258-7.94H61.041a1.508,1.508,0,0,0,1.509-1.509,1.46,1.46,0,0,0-1.509-1.509H33.964l8.1-8.1A1.357,1.357,0,0,0,42.064,35.192Z" transform="translate(-29.2 -34.775)"/></g></svg>