<svg xmlns="http://www.w3.org/2000/svg" width="33" height="23.748" viewBox="0 0 33 23.748"><defs><style>.a{fill:#2b6ec2;}</style></defs><path class="a" d="M49.471,35.187a1.471,1.471,0,0,1,2.043,0L62.043,45.716l.079.079h0a.077.077,0,0,0,.079.079v.707h0v.314h0v.157h0v.079h0v.079h0a.077.077,0,0,1-.079.079h0l-.079.079h0c-.079.079-.079.157-.157.236L51.357,58.13a1.3,1.3,0,0,1-1.021.393,1.494,1.494,0,0,1-1.021-.393,1.471,1.471,0,0,1,0-2.043l8.171-7.857H30.693A1.492,1.492,0,0,1,29.2,46.738a1.445,1.445,0,0,1,1.493-1.493H57.486L49.471,37.23A1.342,1.342,0,0,1,49.471,35.187Z" transform="translate(-29.2 -34.775)"/></svg>