<svg xmlns="http://www.w3.org/2000/svg" width="27" height="25" viewBox="0 0 27 25"><defs><style>.a{fill:none;}.b,.c{fill:#ed0f7e;}.b{fill-rule:evenodd;}</style></defs><g transform="translate(14.99 6.959)"><path class="a" d="M0,0H12V12H0Z"/><g transform="translate(-204 -259)"><g transform="translate(189 252.041)"><path class="b" d="M2.138,46.92H4.809V48.2a2.092,2.092,0,0,0,4.183,0V46.92h9.036V48.2a2.092,2.092,0,0,0,4.183,0V46.92h2.67a2.118,2.118,0,0,1,2.128,2.1V66.83a2.118,2.118,0,0,1-2.128,2.1H2.138A2.118,2.118,0,0,1,.01,66.83V49.015a2.118,2.118,0,0,1,2.128-2.1Zm23.253,5.814v14.1a.507.507,0,0,1-.509.5H2.138a.507.507,0,0,1-.509-.5v-14.1Z" transform="translate(0 -43.925)"/><path class="b" d="M85.51,169.49h2.642v2.642H85.51Z" transform="translate(-80.047 -158.846)"/><path class="b" d="M85.51,235.07h2.642v2.642H85.51Z" transform="translate(-80.047 -220.308)"/><path class="b" d="M85.51,300.66h2.642V303.3H85.51Z" transform="translate(-80.047 -281.836)"/><path class="b" d="M155.82,169.49h2.642v2.642H155.82Z" transform="translate(-145.873 -158.846)"/><path class="b" d="M226.12,169.49h2.642v2.642H226.12Z" transform="translate(-211.69 -158.846)"/><path class="b" d="M296.43,169.49h2.642v2.642H296.43Z" transform="translate(-277.516 -158.846)"/><path class="b" d="M155.82,235.07h2.642v2.642H155.82Z" transform="translate(-145.873 -220.308)"/><path class="b" d="M226.12,235.07h2.642v2.642H226.12Z" transform="translate(-211.69 -220.308)"/><path class="b" d="M296.43,235.07h2.642v2.642H296.43Z" transform="translate(-277.516 -220.308)"/><path class="b" d="M155.82,300.66h2.642V303.3H155.82Z" transform="translate(-145.873 -281.836)"/><path class="b" d="M226.12,300.66h2.642V303.3H226.12Z" transform="translate(-211.69 -281.836)"/><path class="b" d="M296.43,300.66h2.642V303.3H296.43Z" transform="translate(-277.516 -281.836)"/><path class="c" d="M89.64,1.175a1.175,1.175,0,1,1,2.35,0V4.3a1.175,1.175,0,1,1-2.35,0V1.175Z" transform="translate(-83.914)"/><path class="c" d="M296.89,1.175a1.175,1.175,0,1,1,2.35,0V4.3a1.175,1.175,0,1,1-2.35,0V1.175Z" transform="translate(-277.946)"/></g></g></g></svg>