<svg xmlns="http://www.w3.org/2000/svg" width="36" height="70" viewBox="0 0 36 70"><defs><style>.a{fill:#f8709e;}</style></defs><g transform="translate(0)"><g transform="translate(0)"><path class="a" d="M42.645,166.912a35.888,35.888,0,0,1-6.1-.579V182a3.05,3.05,0,1,0,6.1,0Z" transform="translate(-25.212 -115.046)"/><path class="a" d="M59.879,166.912V182a3.05,3.05,0,1,0,6.1,0V166.333A35.924,35.924,0,0,1,59.879,166.912Z" transform="translate(-41.31 -115.046)"/><ellipse class="a" cx="6.556" cy="6.555" rx="6.556" ry="6.555" transform="translate(10.129 12.769) rotate(-76.891)"/><path class="a" d="M4.6,80.66S9.243,83.4,18,83.4,31.4,80.66,31.4,80.66L26.084,54.891c.025.031.049.058.074.089C28.235,57.6,30.725,62.652,32,72.174A2,2,0,0,0,33.988,73.9a2.041,2.041,0,0,0,.264-.017,1.987,1.987,0,0,0,1.73-2.225C34.557,61,31.623,55.151,28.8,51.9c-2.6-3-5.107-3.661-5.784-3.769A22.721,22.721,0,0,0,18,47.492a22.745,22.745,0,0,0-5.014.641C12.308,48.242,9.8,48.9,7.2,51.9,4.376,55.152,1.443,61,.017,71.656a1.989,1.989,0,0,0,1.73,2.225A2.006,2.006,0,0,0,4,72.175c1.288-9.641,3.821-14.693,5.914-17.288Z" transform="translate(0 -32.036)"/></g></g></svg>