<svg xmlns="http://www.w3.org/2000/svg" width="20" height="20" viewBox="0 0 20 20"><defs><style>.a{fill:#097342;}</style></defs><g transform="translate(-6 -6)"><path class="a" d="M16.769,6.8V6.769a.769.769,0,0,0-1.538,0V6.8C10.075,7.13,6,10.784,6,15.231A.77.77,0,0,0,6.769,16H6.9a.769.769,0,0,0,.725-.513,1.536,1.536,0,0,1,2.731-.336.769.769,0,0,0,1.282,0,1.536,1.536,0,0,1,2.731.336A.769.769,0,0,0,15.1,16h.134v7.692a.769.769,0,1,1-1.538,0,.769.769,0,0,0-1.538,0,2.308,2.308,0,1,0,4.615,0V16H16.9a.769.769,0,0,0,.725-.512,1.536,1.536,0,0,1,2.731-.337.769.769,0,0,0,1.282,0,1.537,1.537,0,0,1,2.731.337A.769.769,0,0,0,25.1,16h.134A.77.77,0,0,0,26,15.231C26,10.784,21.925,7.13,16.769,6.8Zm6.154,6.127A3.068,3.068,0,0,0,21,13.6a3.074,3.074,0,0,0-4.585.863h-.83A3.074,3.074,0,0,0,11,13.6a3.07,3.07,0,0,0-3.07-.452c1.083-2.8,4.291-4.838,8.07-4.838s6.986,2.037,8.07,4.838A3.064,3.064,0,0,0,22.923,12.923Z"/></g></svg>