<svg xmlns="http://www.w3.org/2000/svg" width="20" height="20" viewBox="0 0 20 20"><defs><style>.a{isolation:isolate;}.b{fill:#a5140e;}</style></defs><g class="a" transform="translate(-10 -9.9)"><g transform="translate(10 9.9)"><path class="b" d="M-2.081-446.659H-18.009A2,2,0,0,1-20-448.633v-14.493a1.834,1.834,0,0,1,1.674-1.974h1v1.3h-1c-.136,0-.317.269-.317.673v14.493a.693.693,0,0,0,.679.673H-2.036a.693.693,0,0,0,.679-.673v-14.493c0-.4-.226-.673-.317-.673h-1v-1.3h1A1.865,1.865,0,0,1,0-463.126v14.493a2.146,2.146,0,0,1-2.081,1.974" transform="translate(20 466.659)"/><path class="b" d="M-10.421-463.475a.8.8,0,0,1-.779-.779v-3.066a.8.8,0,0,1,.779-.779.8.8,0,0,1,.779.779v3.066a.838.838,0,0,1-.779.779" transform="translate(15.139 468.1)"/><path class="b" d="M12.979-463.475a.8.8,0,0,1-.779-.779v-3.066a.8.8,0,0,1,.779-.779.8.8,0,0,1,.779.779v3.066a.8.8,0,0,1-.779.779" transform="translate(2.213 468.1)"/><path class="b" d="M-5.3-465.1H2.287v1.559H-5.3Z" transform="translate(11.465 466.659)"/><path class="b" d="M-17.1-456.3H-.218v1.559H-17.1Z" transform="translate(18.607 461.595)"/><path class="b" d="M15.2-450.4h1.507v1.507H15.2Z" transform="translate(0.103 458.345)"/><path class="b" d="M9.3-450.4h1.559v1.507H9.3Z" transform="translate(3.815 458.345)"/><path class="b" d="M3.5-450.4H5.007v1.507H3.5Z" transform="translate(7.023 458.345)"/><path class="b" d="M-2.4-450.4H-.893v1.507H-2.4Z" transform="translate(10.281 458.345)"/><path class="b" d="M-8.3-450.4h1.559v1.507H-8.3Z" transform="translate(13.537 458.345)"/><path class="b" d="M15.2-444.5h1.507v1.507H15.2Z" transform="translate(0.103 455.093)"/><path class="b" d="M9.3-444.5h1.559v1.507H9.3Z" transform="translate(3.815 455.093)"/><path class="b" d="M3.5-444.5H5.007v1.507H3.5Z" transform="translate(7.023 455.093)"/><path class="b" d="M-2.4-444.5H-.893v1.507H-2.4Z" transform="translate(10.281 455.093)"/><path class="b" d="M-8.3-444.5h1.559v1.507H-8.3Z" transform="translate(13.537 455.093)"/><path class="b" d="M-14.1-444.5h1.507v1.507H-14.1Z" transform="translate(17.166 455.093)"/><path class="b" d="M15.2-438.7h1.507v1.559H15.2Z" transform="translate(0.103 451.891)"/><path class="b" d="M9.3-438.7h1.559v1.559H9.3Z" transform="translate(3.815 451.891)"/><path class="b" d="M3.5-438.7H5.007v1.559H3.5Z" transform="translate(7.023 451.891)"/><path class="b" d="M-2.4-438.7H-.893v1.559H-2.4Z" transform="translate(10.281 451.891)"/><path class="b" d="M-8.3-438.7h1.559v1.559H-8.3Z" transform="translate(13.537 451.891)"/><path class="b" d="M-14.1-438.7h1.507v1.559H-14.1Z" transform="translate(17.166 451.891)"/><path class="b" d="M9.3-432.8h1.559v1.507H9.3Z" transform="translate(3.815 448.227)"/><path class="b" d="M3.5-432.8H5.007v1.507H3.5Z" transform="translate(7.023 448.227)"/><path class="b" d="M-2.4-432.8H-.893v1.507H-2.4Z" transform="translate(10.281 448.227)"/><path class="b" d="M-8.3-432.8h1.559v1.507H-8.3Z" transform="translate(13.537 448.227)"/><path class="b" d="M-14.1-432.8h1.507v1.507H-14.1Z" transform="translate(17.166 448.227)"/></g></g></svg>