<svg xmlns="http://www.w3.org/2000/svg" width="20" height="30" viewBox="0 0 20 30"><defs><style>.a{opacity:0.3;}</style></defs><g transform="translate(-10 -30)"><g class="a" transform="translate(10 29.999)"><path d="M186.98,63A10.121,10.121,0,0,1,197,73.277c0,4.2-7.627,15.52-10.02,19.723C184.627,88.8,177,77.48,177,73.277A10.113,10.113,0,0,1,186.98,63Zm0,13.19a2.893,2.893,0,0,0,2.88-2.913,2.929,2.929,0,0,0-2.88-2.954,2.9,2.9,0,0,0-2.84,2.954A2.859,2.859,0,0,0,186.98,76.19Z" transform="translate(-177 -63)"/></g></g></svg>