<?xml version="1.0" encoding="UTF-8"?>
<svg width="36px" height="70px" viewBox="0 0 36 70" version="1.1" xmlns="http://www.w3.org/2000/svg" xmlns:xlink="http://www.w3.org/1999/xlink">
    <title>download 12</title>
    <g id="Page-1" stroke="none" stroke-width="1" fill="none" fill-rule="evenodd">
        <g id="Artboard" fill="#233774" fill-rule="nonzero">
            <g id="download-12">
                <circle id="Oval" cx="18.6" cy="8.6" r="5.6"></circle>
                <path d="M23.9706129,15.8 L11.6307504,15.8 C7.96805665,15.8 5,18.8836718 5,22.6890389 C5,23.8087645 5,40.0330991 5,40.0330991 C5,41.3171361 6.00275869,42.3582471 7.23865366,42.3582471 C8.47386695,42.3582471 9.47662564,41.3171361 9.47662564,40.0330991 L9.47662564,22.9270071 C9.47662564,22.4829414 9.82223995,22.1224479 10.2510198,22.1224479 C10.6797997,22.1224479 11.025414,22.4829414 11.025414,22.9270071 L11.025414,41.4361202 L11.0260957,63.9892768 C11.0260957,65.6522215 12.3233424,67 13.9232571,67 C15.5245353,67 16.8211002,65.6522215 16.8211002,63.9892768 C16.8211002,63.9892768 16.8211002,41.4113318 16.8211002,41.4 C16.8211002,40.8376584 17.2594237,40.3815526 17.7999999,40.3815526 C18.3412579,40.3815526 18.7795813,40.8376584 18.7795813,41.4 C18.7795813,41.4113318 18.7795813,63.9892768 18.7795813,63.9892768 C18.7795813,65.6522215 20.0761463,67 21.6767427,67 C23.2773392,67 24.5752675,65.6522215 24.5752675,63.9892768 L24.5752675,41.4361202 L24.5752675,22.9270071 C24.5752675,22.4829414 24.9215635,22.1224479 25.34898,22.1224479 C25.7777599,22.1224479 26.1254193,22.4829414 26.1254193,22.9270071 L26.1254193,40.0323909 C26.1254193,41.3164278 27.1268146,42.3575389 28.3620279,42.3575389 C29.5986046,42.3575389 30.6,41.3164278 30.6,40.0323909 C30.6,40.0323909 30.6,23.8080562 30.6,22.6883307 C30.6006816,18.8836718 27.6333066,15.8 23.9706129,15.8 Z" id="Path"></path>
            </g>
        </g>
    </g>
</svg>