<svg xmlns="http://www.w3.org/2000/svg" width="21" height="21" viewBox="0 0 21 21"><defs><style>.a{fill:#9e7b05;stroke:#9e7b05;}</style></defs><g transform="translate(-60.5 -108.5)"><g transform="translate(55.7 104)"><path class="a" d="M15.3,17.489a6.245,6.245,0,1,1,6.286-6.244h0A6.271,6.271,0,0,1,15.3,17.489Zm0-11.733a5.478,5.478,0,1,0,5.526,5.489A5.548,5.548,0,0,0,15.3,5.756Zm10,18.867a9.9,9.9,0,0,0-4.586-8.356.394.394,0,0,0-.537.111.388.388,0,0,0,.112.533,9.16,9.16,0,0,1,4.228,7.711A.391.391,0,0,0,24.9,25,.411.411,0,0,0,25.3,24.622Zm-19.239,0a9.16,9.16,0,0,1,4.228-7.711.388.388,0,0,0,.112-.533.394.394,0,0,0-.537-.111h0A9.935,9.935,0,0,0,5.3,24.622.391.391,0,0,0,5.68,25a.376.376,0,0,0,.38-.378Z" transform="translate(0)"/></g></g></svg>