<svg xmlns="http://www.w3.org/2000/svg" width="24" height="24" viewBox="0 0 24 24"><defs><style>.a{fill:#047288;}</style></defs><g transform="translate(10 -30)"><path class="a" d="M70.118,1041.25a.707.707,0,1,1-1.412,0v-1.5a5.657,5.657,0,1,0-11.294,0v1.5a.707.707,0,1,1-1.412,0v-1.5a7.072,7.072,0,1,1,14.118,0Zm-1.063-9.6a.677.677,0,0,1-1-.028.783.783,0,0,1,.026-1.06,6.82,6.82,0,0,1,4.859-2.059A7.289,7.289,0,0,1,80,1036v1.5a.707.707,0,1,1-1.412,0V1036a5.831,5.831,0,0,0-5.647-6A5.452,5.452,0,0,0,69.054,1031.647Zm-6-1.647a4.133,4.133,0,1,1,3.882-4.125A4.009,4.009,0,0,1,63.059,1030Zm0-1.5a2.63,2.63,0,1,0-2.471-2.625A2.551,2.551,0,0,0,63.059,1028.5Zm9.882-2.25a4.133,4.133,0,1,1,3.882-4.125A4.009,4.009,0,0,1,72.941,1026.25Zm0-1.5a2.63,2.63,0,1,0-2.471-2.625A2.551,2.551,0,0,0,72.941,1024.75Z" transform="translate(-66 -988)"/></g></svg>