<svg xmlns="http://www.w3.org/2000/svg" width="16" height="16" viewBox="0 0 16 16"><defs><style>.a{fill:#1d8053;}</style></defs><path class="a" d="M3.985,22.6H1.347A1.327,1.327,0,0,1,.021,21.276v-7.95A1.328,1.328,0,0,1,1.347,12H3.985a1.328,1.328,0,0,1,1.326,1.326v7.95A1.328,1.328,0,0,1,3.985,22.6ZM1.347,13.06a.266.266,0,0,0-.266.266v7.95a.267.267,0,0,0,.266.266H3.985a.267.267,0,0,0,.266-.266v-7.95a.266.266,0,0,0-.266-.266Z" transform="translate(-0.021 -6.602)"/><path class="a" d="M15.306,16h-6a1.972,1.972,0,0,1-.884-.211l-1.667-.842a.5.5,0,0,1-.221-.671.492.492,0,0,1,.664-.224l1.667.842A.983.983,0,0,0,9.309,15h6a.506.506,0,0,0,.439-.257l.559-.988a8.267,8.267,0,0,0,1.067-4.062V8a1,1,0,0,0-.991-1H12.656a.984.984,0,0,1-.818-.438,1.007,1.007,0,0,1-.1-.93,9.707,9.707,0,0,0,.684-3.589v-.58A.461.461,0,0,0,11.964,1h-.308a.461.461,0,0,0-.44.336l-.194.686A11.456,11.456,0,0,1,8.973,6.032,2.53,2.53,0,0,1,6.979,7H5.495a.5.5,0,0,1,0-1H6.979A1.551,1.551,0,0,0,8.2,5.407a10.458,10.458,0,0,0,1.87-3.661l.194-.686A1.457,1.457,0,0,1,11.657,0h.308a1.457,1.457,0,0,1,1.448,1.463v.58A10.72,10.72,0,0,1,12.658,6L16.38,6a1.993,1.993,0,0,1,1.98,2V9.693a9.274,9.274,0,0,1-1.2,4.558l-.559.988A1.5,1.5,0,0,1,15.306,16Z" transform="translate(-2.361)"/><circle class="a" cx="0.572" cy="0.572" r="0.572" transform="translate(2.263 12.569)"/></svg>