<svg xmlns="http://www.w3.org/2000/svg" width="21.719" height="21.153" viewBox="0 0 21.719 21.153"><defs><style>.a{fill:#097342;stroke:#097342;}</style></defs><g transform="translate(-70.147 -305.278)"><g transform="translate(0 250)"><g transform="translate(70.939 55.79)"><path class="a" d="M80.826,73.907l-3.1,1.3c-.145.061-.29.123-.435.182.113.064.227.127.34.189V74.093c-.023.053-.045.1-.066.156q.619-.569,1.24-1.138c.243-.221.485-.445.726-.666.109-.1.222-.18.218-.34-.014-.493-.043-.984-.063-1.477-.034-.765-.066-1.528-.1-2.293-.02-.458-.029-.921-.059-1.379v-.022a.228.228,0,0,0-.288-.21l-.809.263-1.936.627-2.351.763q-1.017.329-2.034.66l-.671.217c-.1.033-.215.059-.317.1l-.014,0c.1.07.19.14.288.21V67.816c-.039.064-.075.127-.113.189l.522-.368c.438-.311.877-.62,1.315-.932q.884-.625,1.766-1.252l1.855-1.315,1.585-1.124.957-.677c.052-.037.109-.072.159-.112.127-.105.088-.32.088-.467V57.588a1.373,1.373,0,0,1,.646-1.146,1.453,1.453,0,0,1,1.363-.092,1.4,1.4,0,0,1,.8,1.07,3.538,3.538,0,0,1,.009.438v3.818c0,.123-.007.25,0,.373s.118.2.218.263l.361.248,1.3.89q.888.608,1.778,1.217l1.88,1.289q.806.552,1.61,1.1l.968.664.134.092c-.039-.064-.075-.127-.113-.189v1.909c.1-.07.19-.14.288-.21l-.807-.256-1.948-.623-2.347-.75-2.029-.649c-.329-.105-.655-.228-.989-.316l-.014,0a.23.23,0,0,0-.288.21c-.016.381-.034.761-.05,1.142-.034.758-.066,1.515-.1,2.273-.025.559-.048,1.116-.073,1.675a1.034,1.034,0,0,0,0,.118.282.282,0,0,0,.12.208l.612.563c.474.434.934.888,1.424,1.306l.029.026c-.023-.053-.045-.1-.066-.156v1.482c.113-.064.227-.127.34-.188l-3.1-1.3c-.145-.061-.29-.123-.435-.182a.239.239,0,0,0-.311.079.217.217,0,0,0,.082.3l3.1,1.3c.145.061.29.123.435.182a.23.23,0,0,0,.34-.188v-1.4a.319.319,0,0,0-.088-.256c-.492-.482-1.02-.936-1.528-1.405-.19-.173-.379-.349-.569-.522.023.053.045.1.066.156.025-.587.052-1.177.077-1.764l.122-2.8.027-.644c-.1.07-.19.14-.288.21l.807.256,1.948.623,2.347.75,2.029.649c.329.105.655.228.989.316l.014,0a.228.228,0,0,0,.288-.21v-1.85a.267.267,0,0,0-.113-.25l-.023-.015c-.463-.322-.932-.638-1.4-.958q-1.333-.914-2.666-1.826t-2.651-1.817l-.923-.631c-.152-.1-.3-.217-.456-.311l-.02-.013c.039.064.075.127.113.189V58.23c0-.256.016-.522-.007-.778a1.846,1.846,0,0,0-1.549-1.64,1.9,1.9,0,0,0-2.018,1.059,2.545,2.545,0,0,0-.156,1.087v4.1c.039-.064.075-.127.113-.189-.37.263-.741.524-1.111.787L75.557,64.44l-2.7,1.914-1.68,1.19-.12.085c-.138.1-.116.228-.116.375v1.569a.227.227,0,0,0,.288.21l.809-.263,1.936-.627,2.351-.763q1.017-.329,2.034-.66l.671-.217c.1-.033.215-.059.317-.1l.014,0c-.1-.07-.19-.14-.288-.21.025.587.052,1.177.077,1.764l.122,2.8.027.644c.023-.053.045-.1.066-.156l-1.374,1.263-.687.631a.3.3,0,0,0-.122.228c0,.134,0,.27,0,.4v1.059a.229.229,0,0,0,.34.189l3.1-1.3c.145-.061.29-.123.435-.182a.216.216,0,0,0,.082-.3A.236.236,0,0,0,80.826,73.907Z" transform="translate(-70.939 -55.79)"/></g></g></g></svg>